<?xml version="1.0" standalone="no"?>
<!DOCTYPE svg PUBLIC "-//W3C//DTD SVG 20010904//EN"
 "http://www.w3.org/TR/2001/REC-SVG-20010904/DTD/svg10.dtd">
<svg version="1.0" xmlns="http://www.w3.org/2000/svg"
 width="549.000000pt" height="549.000000pt" viewBox="0 0 549.000000 549.000000"
 preserveAspectRatio="xMidYMid meet">
<metadata>
Created by potrace 1.14, written by Peter Selinger 2001-2017
</metadata>
<g transform="translate(0.000000,549.000000) scale(0.100000,-0.100000)"
fill="#000000" stroke="none">
<path d="M146 4891 c-16 -24 -39 -44 -64 -54 -22 -9 -42 -23 -46 -32 -3 -9 -2
-13 4 -10 6 3 1 -10 -11 -29 -12 -20 -19 -36 -16 -36 3 0 2 -13 -3 -30 -5 -19
-5 -30 1 -30 6 0 8 -4 4 -10 -10 -16 -6 -3882 4 -3917 19 -65 72 -137 120
-163 14 -7 849 -10 2635 -10 l2616 0 50 49 50 49 0 2074 0 2074 -47 47 c-26
26 -53 47 -60 47 -7 0 -13 5 -13 10 0 7 -873 10 -2600 10 l-2600 0 -24 -39z
m5154 -33 c73 -25 120 -71 138 -138 8 -29 8 -3921 0 -3926 -5 -3 -6 -10 -2
-15 6 -11 -17 -69 -28 -69 -5 0 -8 -6 -8 -12 0 -14 -60 -56 -94 -65 -41 -12
-5028 -14 -5072 -2 -23 6 -59 28 -83 50 -22 21 -38 39 -35 39 4 0 2 6 -3 12
-6 7 -13 27 -17 43 -4 17 -7 773 -7 1680 1 2317 0 2240 13 2277 11 33 68 120
68 104 0 -5 11 -1 25 8 14 9 29 15 33 13 4 -3 15 -1 26 2 21 8 5023 7 5046 -1z"/>
<path d="M2380 4644 c0 -7 4 -16 10 -19 13 -8 5 -85 -12 -101 -20 -19 -52 -22
-53 -4 0 24 -36 90 -46 84 -5 -3 -9 -1 -9 5 0 17 -106 35 -116 19 -3 -5 2 -25
11 -44 13 -28 14 -41 5 -69 -6 -19 -15 -37 -19 -39 -15 -10 -51 7 -51 23 0 18
-50 100 -59 99 -3 -1 -22 6 -41 14 -44 20 -130 31 -130 17 0 -6 -4 -7 -10 -4
-20 12 -9 -7 20 -36 16 -17 29 -33 29 -37 -1 -4 0 -10 1 -14 5 -20 3 -76 -4
-86 -4 -7 -4 -12 0 -12 7 0 -67 -73 -97 -95 -32 -24 -114 -80 -119 -80 -3 0
-25 -13 -49 -29 -94 -60 -156 -43 -160 46 -1 21 -37 19 -91 -4 -70 -30 -90
-78 -58 -142 11 -21 22 -51 24 -65 9 -59 15 -69 45 -81 31 -13 111 -17 161 -7
32 7 78 36 78 50 0 6 3 8 6 4 3 -3 17 7 30 23 13 15 31 27 40 26 18 -3 74 -47
74 -59 0 -4 8 -26 19 -47 10 -21 17 -41 14 -44 -3 -2 -6 -33 -8 -68 -2 -61
-32 -145 -58 -167 -7 -5 -35 -13 -64 -19 -45 -8 -57 -6 -84 10 -36 22 -68 57
-69 75 0 10 -6 10 -27 1 -48 -21 -103 -60 -97 -69 3 -5 1 -9 -5 -9 -13 0 -7
-80 7 -89 15 -9 40 -72 37 -91 -13 -72 -13 -80 0 -80 17 0 65 46 66 63 3 44 7
60 20 68 20 12 37 -15 35 -56 -1 -19 1 -35 5 -35 14 0 39 38 45 68 8 38 15 44
34 32 10 -6 15 -26 15 -58 -1 -48 0 -49 22 -39 20 9 36 39 38 69 0 4 8 17 19
29 18 21 19 22 29 3 14 -23 15 -42 5 -73 -7 -19 -5 -22 8 -17 25 9 70 49 82
71 22 42 44 91 48 108 12 52 15 66 18 110 2 26 0 50 -5 53 -5 3 -7 9 -4 14 3
4 -4 28 -14 53 -11 25 -17 48 -14 51 4 3 1 6 -5 6 -7 0 -12 5 -12 10 0 11 -47
87 -67 108 -7 7 -13 19 -14 25 0 7 -3 21 -6 32 -26 93 8 189 77 218 54 22 160
13 160 -14 0 -12 40 -12 41 1 7 54 19 54 55 2 43 -65 51 -69 78 -43 26 24 44
27 96 16 38 -8 111 -10 147 -3 30 6 103 65 103 83 0 8 4 15 9 15 12 0 23 52
22 96 -3 57 -4 64 -13 64 -4 0 -8 6 -8 13 0 13 -36 49 -55 56 -5 2 -21 7 -33
12 -13 5 -27 7 -32 4 -5 -3 -11 -1 -14 4 -9 14 -56 10 -56 -5z m-893 -476 c15
-6 31 -12 36 -13 4 -2 10 -4 15 -5 4 -1 13 -3 20 -4 23 -2 31 -28 15 -45 -18
-18 -92 -24 -110 -9 -7 6 -13 7 -13 3 0 -4 -7 -2 -15 5 -19 16 -19 44 1 64 18
19 16 19 51 4z"/>
<path d="M4833 4592 c-35 -5 -83 -56 -84 -89 -2 -45 1 -57 26 -83 28 -31 26
-69 -5 -89 -33 -22 -53 -25 -180 -25 -104 1 -182 13 -250 41 -8 3 -17 7 -20 7
-3 1 -18 6 -35 13 -16 6 -79 30 -140 53 -60 22 -119 45 -130 50 -37 16 -150
53 -170 55 -11 1 -20 3 -20 4 0 5 -41 12 -77 14 -21 1 -38 5 -38 8 0 4 -55 6
-122 5 -203 -3 -373 -58 -452 -146 -36 -40 -70 -102 -68 -125 0 -5 2 -27 3
-48 1 -20 8 -42 16 -48 7 -6 10 -15 7 -20 -3 -5 -1 -9 4 -9 10 0 32 -44 32
-65 0 -11 -38 -32 -48 -26 -1 1 -16 -5 -32 -14 -51 -26 -64 -74 -33 -126 24
-41 38 -42 75 -5 45 45 93 46 195 5 43 -17 85 -33 93 -35 8 -2 40 -10 70 -18
44 -13 155 -28 205 -28 29 0 192 13 205 17 8 2 33 7 55 10 23 3 52 7 65 10 14
3 36 7 50 9 145 28 453 29 585 2 11 -3 21 -5 23 -6 1 -2 7 -4 12 -5 6 -1 13
-4 18 -5 4 -1 10 -2 14 -2 3 1 12 -5 18 -13 7 -8 18 -15 24 -15 13 0 54 -43
72 -76 7 -11 11 -36 10 -55 -5 -69 -53 -109 -126 -104 -25 1 -45 3 -45 4 0 2
-11 4 -24 7 -14 2 -29 8 -35 13 -21 18 -155 60 -208 66 -14 2 -32 6 -38 10
-13 8 -243 8 -280 0 -14 -3 -47 -8 -75 -11 -27 -3 -77 -12 -110 -19 -33 -8
-71 -16 -85 -19 -14 -3 -50 -12 -80 -21 -30 -8 -64 -17 -75 -19 -11 -2 -37
-11 -57 -20 -21 -9 -38 -14 -38 -11 0 3 -13 -1 -30 -10 -16 -9 -30 -13 -30
-10 0 2 -22 -4 -50 -15 -27 -11 -50 -17 -50 -14 0 4 -6 2 -13 -4 -11 -9 -98
-37 -144 -46 -7 -1 -15 -5 -19 -9 -4 -3 -15 -2 -25 4 -13 7 -19 6 -19 -1 0 -6
-4 -9 -9 -5 -5 3 -12 1 -16 -4 -3 -5 1 -13 8 -18 8 -4 19 -18 25 -29 10 -18 7
-25 -16 -45 -56 -50 -173 -90 -277 -94 -60 -2 -74 -9 -70 -33 2 -9 4 -17 5
-17 1 0 3 -8 5 -18 7 -36 -49 -48 -220 -46 -11 0 -43 8 -71 18 -48 19 -51 19
-61 1 -12 -19 -73 -45 -73 -31 0 5 -17 5 -37 2 -38 -7 -64 -6 -138 4 -58 7
-91 -10 -179 -98 -63 -63 -82 -76 -100 -71 -31 9 -63 52 -82 109 -22 66 -23
68 -40 54 -8 -6 -14 -8 -14 -3 0 5 -7 -2 -16 -14 -9 -13 -27 -27 -41 -33 -13
-5 -21 -13 -18 -19 3 -5 -1 -10 -10 -10 -9 0 -14 -4 -11 -9 3 -5 -1 -11 -9
-15 -16 -6 -13 -54 7 -105 5 -14 9 -27 9 -28 -1 -2 -1 -4 0 -5 0 -2 2 -10 4
-18 5 -27 67 -149 86 -169 11 -11 19 -23 19 -26 0 -13 107 -115 113 -108 4 3
7 0 7 -8 0 -16 90 -77 160 -108 47 -22 95 -27 104 -12 3 5 -6 46 -20 92 -13
46 -27 96 -29 112 -2 15 -6 31 -9 36 -25 39 -26 224 -2 271 25 49 80 98 127
113 21 6 39 15 39 19 0 3 8 5 17 3 10 -1 23 1 29 6 6 5 58 8 115 6 88 -2 113
-7 159 -29 30 -14 66 -37 80 -50 27 -25 66 -88 54 -88 -3 0 -2 -6 4 -13 9 -10
18 -140 12 -157 -1 -3 -4 -18 -5 -35 -2 -16 -6 -46 -10 -65 -7 -40 -16 -103
-18 -140 -2 -20 3 -24 28 -25 67 -2 154 27 343 116 46 21 87 39 91 39 4 0 13
6 20 13 6 6 15 12 19 13 4 0 45 20 92 44 47 24 119 60 160 79 41 20 78 40 81
44 3 5 8 8 10 6 2 -1 28 6 57 15 29 10 75 19 103 20 27 0 49 4 49 9 0 4 -7 7
-14 7 -23 0 -64 62 -62 93 1 15 9 36 18 46 9 11 14 22 11 25 -4 3 1 6 10 6 10
0 17 4 17 9 0 13 84 5 88 -8 2 -6 9 -11 16 -11 26 0 37 -53 24 -110 -3 -17
-59 -60 -70 -54 -4 2 -9 0 -13 -6 -4 -6 6 -10 24 -10 17 0 31 -5 31 -10 0 -6
4 -9 8 -8 34 11 132 -90 132 -136 0 -9 4 -16 8 -16 8 0 10 -7 13 -47 1 -10 5
-22 9 -28 4 -5 10 -22 14 -38 10 -42 69 -91 165 -137 124 -60 122 -57 112
-158 -1 -18 -51 -63 -62 -56 -5 3 -9 1 -9 -3 0 -5 -12 -10 -26 -11 -15 -1 -33
-7 -40 -13 -8 -6 -14 -8 -14 -4 0 4 -6 3 -12 -3 -7 -6 -17 -11 -23 -11 -35 -3
-96 -74 -101 -116 -3 -29 8 -32 32 -7 10 9 19 16 21 15 2 -2 4 -3 6 -2 8 2 38
8 77 14 24 4 48 9 51 11 11 7 19 -26 11 -44 -7 -15 -8 -29 -3 -46 1 -5 188 90
206 105 19 15 34 -7 38 -53 2 -23 7 -24 72 -14 38 6 46 13 85 66 15 21 15 20
65 -13 66 -45 117 -61 169 -53 22 4 47 8 54 8 25 3 11 24 -25 37 -43 16 -73
43 -99 90 -21 39 -42 66 -92 117 -38 39 -36 47 27 95 43 33 48 43 55 102 l4
28 -22 -20 c-25 -23 -68 -41 -100 -41 -23 0 -77 35 -75 48 1 4 0 9 -1 12 -1 3
-3 21 -5 40 -3 40 16 71 81 133 24 23 44 46 44 50 0 5 11 23 24 40 14 18 25
35 25 40 0 4 8 21 17 39 40 77 62 186 59 291 -1 56 -6 116 -10 132 -15 60 -12
69 46 129 74 77 108 146 111 223 5 126 -52 219 -167 273 -67 31 -79 35 -202
55 -13 2 -27 6 -33 10 -5 3 -10 2 -10 -4 0 -7 -8 -7 -22 -2 -21 7 -127 7 -498
-2 -63 -2 -120 0 -125 4 -6 5 -20 8 -30 7 -11 -1 -38 7 -60 17 -22 10 -43 17
-47 17 -5 -1 -8 3 -8 9 0 6 -7 17 -16 26 -25 25 -34 2 -17 -46 12 -36 12 -46
1 -57 -11 -11 -21 -9 -60 8 -37 16 -52 30 -68 62 -11 23 -20 54 -20 68 0 40
-26 42 -56 3 -22 -30 -25 -41 -20 -86 7 -61 -6 -94 -32 -80 -9 4 -23 6 -29 4
-7 -3 -13 -1 -13 4 0 4 -12 14 -28 20 -41 19 -98 78 -123 129 -22 47 -23 110
-1 164 5 14 10 29 10 34 0 5 4 12 9 15 4 3 21 21 36 39 15 19 27 31 27 27 0
-3 14 3 30 15 17 12 30 18 30 14 0 -3 6 -2 13 3 13 11 25 12 105 13 29 0 61
-4 70 -9 9 -5 20 -8 23 -8 11 3 109 -46 109 -55 0 -4 5 -8 11 -8 13 0 39 -25
39 -38 0 -5 7 -15 15 -22 9 -7 14 -19 11 -27 -3 -7 -1 -13 5 -13 6 0 9 -7 5
-15 -3 -8 -1 -15 4 -15 15 0 50 38 60 65 12 31 25 32 45 1 15 -23 15 -82 0
-106 -3 -4 4 -10 15 -13 11 -3 20 -1 20 5 0 5 4 7 8 4 4 -2 17 9 27 25 11 16
22 29 25 29 9 0 25 -15 35 -33 6 -10 24 -26 40 -35 17 -9 32 -20 33 -25 2 -4
8 -5 13 -1 5 3 9 1 9 -5 0 -6 7 -8 15 -4 14 5 14 8 2 27 -21 32 -26 74 -11 80
8 3 14 1 14 -5 0 -6 5 -7 10 -4 6 3 10 1 10 -4 0 -6 5 -11 11 -11 6 0 25 -11
43 -25 32 -24 122 -68 129 -63 2 2 10 -2 18 -7 18 -13 65 -13 62 0 -1 6 -4 22
-8 36 -6 26 -6 26 47 23 29 -1 53 -3 53 -4 0 -7 62 -4 73 3 8 6 12 5 12 -3 0
-10 3 -10 15 0 12 10 15 10 15 -1 0 -9 3 -10 8 -4 4 6 19 11 34 13 15 1 44 10
65 19 21 9 41 17 44 17 4 1 25 15 47 33 75 61 112 175 77 243 -17 33 -63 72
-76 64 -5 -3 -9 -1 -9 5 0 9 -10 10 -57 3z m-636 -996 c53 -62 8 -157 -74
-158 -74 -1 -115 72 -82 146 24 52 115 59 156 12z m-388 13 c49 -17 68 -61 50
-117 -25 -76 -137 -86 -172 -15 -16 33 -15 58 2 94 22 44 63 58 120 38z m683
-151 c17 -16 28 -34 25 -42 -3 -8 -2 -16 3 -18 15 -5 -17 -66 -45 -84 -40 -26
-85 -21 -117 16 -16 16 -28 38 -29 48 0 9 -2 25 -4 35 -2 9 1 17 6 17 5 0 14
11 21 25 20 44 95 46 140 3z m-839 -101 c6 -1 21 -12 33 -23 21 -20 28 -43 25
-91 -1 -23 -49 -75 -62 -67 -4 2 -10 0 -13 -5 -10 -15 -77 11 -94 36 -18 28
-27 93 -12 93 5 0 9 4 8 10 -2 5 10 20 27 34 27 22 35 23 88 13z m397 -29 c18
-13 24 -28 26 -64 2 -41 -1 -51 -28 -76 -24 -22 -39 -28 -68 -26 -49 2 -69 18
-85 64 -21 60 4 105 66 122 37 10 52 6 89 -20z m717 -48 c1 0 10 -15 22 -33
55 -89 -39 -184 -130 -130 -25 15 -39 42 -44 88 -1 6 5 22 12 38 18 35 68 57
108 45 16 -4 31 -8 32 -8z m-1456 -50 c22 -13 42 -71 34 -103 -11 -40 -49 -69
-94 -71 -41 -1 -81 24 -81 51 0 7 -4 13 -10 13 -16 0 -3 71 17 93 33 36 85 43
134 17z m984 -66 c46 -24 60 -57 49 -117 -10 -52 -92 -82 -140 -50 -30 19 -58
69 -44 78 5 3 7 11 5 18 -9 22 32 75 62 80 15 2 30 5 33 5 3 1 18 -5 35 -14z
m-1325 -41 c14 -7 21 -13 17 -13 -4 0 -2 -10 5 -22 6 -13 13 -29 14 -36 3 -19
-16 -72 -26 -72 -5 0 -15 -6 -23 -14 -30 -30 -82 -23 -119 16 -29 32 -32 56
-13 114 13 41 90 55 145 27z m589 -79 c14 -8 22 -14 16 -14 -5 0 -4 -4 3 -9
20 -12 24 -80 6 -105 -24 -35 -73 -55 -108 -44 -83 26 -92 143 -14 182 26 13
59 10 97 -10z m-1652 -65 c23 -11 42 -24 41 -27 -1 -4 2 -17 6 -30 18 -52 -26
-111 -87 -118 -81 -10 -135 106 -75 161 43 40 58 42 115 14z m2734 -49 c14
-17 25 -41 24 -53 -1 -12 -3 -27 -4 -34 0 -7 -12 -24 -25 -38 -18 -20 -35 -26
-65 -27 -45 0 -65 12 -86 52 -53 102 82 187 156 100z m-1431 -48 c47 -36 52
-94 10 -142 -11 -13 -20 -19 -20 -14 0 5 -4 4 -8 -2 -23 -36 -120 2 -128 50
-1 6 -5 18 -8 26 -8 21 35 93 57 96 11 1 21 5 24 7 9 9 47 -2 73 -21z m-291
-91 c35 -19 54 -67 41 -105 -15 -46 -39 -65 -88 -70 -37 -3 -45 0 -71 29 -29
33 -30 38 -19 112 1 7 10 15 20 19 10 3 18 9 18 14 0 20 62 20 99 1z m-843
-25 c29 -30 52 -106 32 -106 -4 0 -8 -6 -8 -13 0 -18 -34 -49 -43 -40 -4 3 -7
1 -7 -6 0 -20 -74 -7 -98 17 -26 26 -38 83 -22 111 26 50 111 71 146 37z
m2263 -7 c56 -53 28 -147 -49 -164 -81 -18 -144 76 -97 144 35 50 104 59 146
20z"/>
<path d="M952 4499 c-12 -5 -22 -6 -22 -4 0 8 -80 -40 -125 -75 -41 -33 -63
-68 -96 -150 -11 -27 -14 -101 -13 -340 2 -533 9 -737 26 -754 18 -17 128 -31
128 -16 0 6 3 9 8 8 4 -1 17 3 29 10 l21 12 1 562 c1 552 3 611 22 634 5 6 7
13 4 16 -3 3 7 14 21 24 44 31 65 55 61 67 -4 14 -34 17 -65 6z"/>
<path d="M2504 4254 c-26 -29 -87 -42 -164 -33 -68 7 -81 3 -76 -24 2 -12 -1
-28 -6 -34 -19 -23 -48 -13 -98 33 -42 39 -52 44 -69 35 -16 -9 -28 -7 -56 9
-82 46 -164 22 -165 -49 0 -25 39 -101 52 -101 4 0 7 -3 6 -7 -2 -5 7 -25 19
-46 19 -32 25 -36 37 -25 8 7 14 15 13 18 -3 17 17 50 31 50 18 0 82 -41 82
-52 0 -5 7 -8 15 -8 8 0 15 -4 15 -8 0 -5 12 -15 28 -23 15 -7 38 -21 51 -31
13 -10 28 -18 33 -18 8 0 7 35 -3 86 -7 36 24 46 64 19 31 -20 100 -43 114
-38 9 3 9 10 1 29 -6 13 -15 24 -19 24 -5 0 -4 11 2 24 12 26 45 41 55 25 3
-5 8 -8 12 -5 4 2 31 7 60 10 30 3 63 11 73 17 14 7 19 6 19 -2 0 -8 4 -8 13
-2 6 6 30 14 52 18 23 5 33 10 23 12 -10 3 -18 9 -18 14 0 5 -7 9 -16 9 -19 0
-92 50 -116 79 -23 27 -38 26 -64 -5z m-479 -50 c29 -32 32 -60 7 -73 -38 -20
-122 11 -122 44 0 55 74 74 115 29z"/>
<path d="M2553 4044 c-17 -13 -17 -15 0 -25 18 -11 23 -55 7 -79 -7 -11 -30
-15 -97 -15 -81 0 -88 -2 -89 -20 -1 -31 -14 -54 -27 -49 -7 2 -28 6 -47 8
-48 5 -83 17 -178 66 -44 22 -67 29 -74 22 -6 -6 -12 -37 -14 -69 -5 -62 8
-87 54 -112 12 -6 22 -18 22 -25 0 -11 20 -26 34 -26 1 0 3 21 5 47 1 26 4 49
6 51 2 2 30 -14 62 -35 32 -21 70 -45 86 -52 15 -8 27 -18 27 -23 0 -5 4 -7 8
-4 5 3 21 -2 36 -9 26 -14 28 -13 21 3 -3 9 -9 33 -11 53 -6 41 8 58 31 39 8
-7 15 -10 15 -6 0 3 15 0 33 -7 17 -8 62 -15 100 -16 55 -2 67 0 67 13 0 9 -4
16 -9 16 -13 0 -20 49 -8 57 6 3 24 8 41 10 56 6 61 8 116 40 47 26 101 71 89
74 -2 0 -12 2 -21 4 -10 2 -18 -1 -18 -5 0 -5 -16 -4 -36 2 -20 5 -38 7 -41 4
-8 -8 -73 32 -98 59 -23 25 -66 29 -92 9z"/>
<path d="M1087 3975 c-83 -29 -107 -109 -57 -190 12 -19 26 -33 31 -29 5 3 9
2 9 -3 0 -28 163 -41 203 -16 6 4 17 8 22 8 11 1 67 27 75 35 6 6 108 73 128
84 19 11 63 18 105 17 57 -2 67 -4 67 -13 0 -4 7 -8 15 -8 8 0 15 -4 15 -10 0
-5 7 -10 16 -10 9 0 12 -5 8 -12 -4 -7 -3 -8 4 -4 19 11 14 23 -20 55 -31 28
-78 48 -105 43 -6 -2 -14 2 -18 7 -4 7 -15 7 -30 1 -14 -5 -25 -7 -25 -4 0 4
-7 0 -17 -7 -9 -8 -19 -13 -22 -12 -7 1 -77 -31 -101 -47 -8 -6 -37 -20 -65
-32 -142 -61 -266 1 -214 107 11 22 18 42 17 46 -2 4 -20 1 -41 -6z"/>
<path d="M2740 3809 c0 -6 -4 -8 -9 -5 -5 4 -17 3 -26 0 -15 -6 -14 -9 3 -28
24 -27 22 -40 -8 -68 -21 -19 -36 -23 -104 -25 -44 -1 -84 1 -90 5 -36 22 -49
-3 -17 -32 35 -32 20 -51 -42 -53 -32 0 -60 3 -63 8 -3 5 -13 9 -23 9 -10 0
-45 13 -77 30 -32 16 -59 28 -60 27 -1 -1 -6 -15 -11 -32 -10 -30 -46 -44 -59
-23 -3 4 -10 6 -15 3 -5 -4 -9 -1 -9 4 0 6 -7 11 -15 11 -8 0 -15 4 -15 9 0 5
-9 13 -20 16 -11 3 -27 13 -35 22 -20 19 -24 15 -36 -34 -14 -54 -14 -54 -28
-95 -12 -35 -11 -39 13 -65 14 -15 28 -24 32 -21 3 4 8 28 11 55 2 26 7 51 11
55 9 9 52 -2 52 -13 0 -5 7 -9 15 -9 8 0 15 -3 15 -8 0 -11 119 -74 129 -68 5
3 9 22 9 42 0 19 2 38 5 41 3 3 30 -6 59 -20 92 -42 111 -48 165 -53 l52 -4 3
43 c3 38 5 42 28 41 14 -1 36 -5 50 -8 83 -21 162 -23 168 -5 2 5 7 7 11 5 4
-3 8 4 8 15 1 10 -2 19 -7 19 -14 0 -48 61 -43 79 3 12 16 16 47 16 50 0 146
25 146 37 0 5 5 6 10 3 6 -3 10 -1 10 5 0 6 4 9 9 6 5 -3 14 1 21 9 10 12 7
13 -18 6 -46 -13 -111 -3 -160 24 -50 28 -92 39 -92 24z"/>
<path d="M1612 3802 c-22 -7 17 -42 47 -42 60 1 60 36 1 43 -19 2 -41 2 -48
-1z"/>
<path d="M2890 3649 c0 -8 11 -23 25 -33 31 -23 32 -58 4 -85 -30 -28 -116
-53 -186 -55 -55 -1 -58 -2 -61 -28 -2 -16 -6 -28 -10 -29 -4 0 -16 -3 -27 -5
-28 -7 -32 -7 -115 0 -71 7 -84 9 -129 21 -14 4 -21 -2 -30 -26 -11 -31 -12
-32 -57 -25 -25 3 -60 12 -77 20 -101 45 -128 55 -125 43 4 -22 -13 -75 -28
-87 -15 -13 -38 -2 -81 39 -12 12 -26 21 -31 21 -5 0 -15 6 -22 14 -16 20 -32
12 -120 -57 -107 -84 -145 -130 -156 -190 -4 -16 -2 -16 21 -1 14 9 22 21 18
27 -3 5 -2 7 4 4 5 -3 22 5 38 19 26 22 39 28 58 25 4 0 7 4 7 10 0 7 14 9 37
6 37 -5 77 -42 66 -60 -7 -12 18 -87 29 -87 8 0 20 9 53 38 7 6 18 12 24 12 6
0 11 4 11 9 0 5 22 23 50 41 53 34 91 37 170 10 19 -6 56 -13 82 -15 49 -3 54
1 64 54 7 36 13 42 32 32 16 -9 51 -23 62 -25 3 -1 10 -4 16 -8 18 -12 122
-30 167 -29 24 0 47 19 42 34 -12 35 -12 67 0 77 8 7 60 13 122 15 123 4 143
7 186 33 32 18 49 51 25 49 -7 -1 -32 5 -55 12 -54 18 -56 41 -5 67 20 10 39
21 42 24 3 3 13 6 23 8 21 4 107 54 107 62 0 4 -39 6 -87 6 -103 -1 -153 4
-170 17 -9 6 -13 5 -13 -4z"/>
<path d="M611 3191 c-7 -5 -15 -29 -18 -54 -4 -36 -1 -52 17 -77 33 -47 84
-64 203 -69 23 -1 22 -32 -4 -65 -18 -23 -19 -28 -6 -41 12 -12 13 -20 4 -39
-7 -13 -15 -22 -18 -20 -4 2 -9 -3 -13 -11 -3 -10 1 -15 14 -15 33 0 35 -37 3
-66 -15 -14 -22 -23 -15 -19 6 3 12 1 12 -4 0 -6 6 -11 14 -11 14 0 15 -35 2
-48 -3 -2 1 -19 8 -37 13 -29 12 -36 -4 -63 -20 -33 -47 -51 -88 -58 -35 -7
-44 -14 -38 -30 3 -8 1 -14 -4 -14 -6 0 -9 -5 -8 -12 2 -6 -9 -17 -23 -25 -20
-10 -32 -10 -57 -1 -39 15 -48 7 -32 -31 10 -25 25 -37 60 -46 3 -1 18 -7 33
-13 16 -7 33 -12 39 -12 17 0 53 -52 57 -83 1 -12 25 -35 35 -34 6 1 21 16 35
32 14 17 30 33 36 37 5 4 6 8 1 8 -19 0 22 35 64 53 55 24 90 60 90 93 0 23
-14 32 -24 16 -6 -10 -41 -9 -72 1 -22 8 -47 50 -36 61 3 4 7 16 9 28 2 12 10
36 19 52 37 75 48 207 30 369 -7 57 -6 68 6 65 36 -8 108 68 100 105 -1 4 -3
15 -5 25 -10 61 -75 81 -83 25 -6 -39 -70 -65 -163 -67 -71 -2 -84 1 -111 22
-16 13 -30 30 -30 38 0 8 -5 14 -11 14 -5 0 -8 4 -4 9 8 14 -8 21 -24 12z"/>
<path d="M2375 3050 c-3 -4 -19 -11 -35 -15 -17 -4 -30 -10 -30 -15 0 -5 -8
-11 -17 -14 -23 -7 -64 -67 -66 -95 -1 -12 -4 -21 -7 -21 -3 0 -4 -17 -2 -37
1 -21 3 -50 3 -65 0 -15 5 -30 10 -34 5 -3 7 -9 4 -14 -3 -5 4 -42 15 -84 12
-41 23 -86 26 -98 10 -41 16 -217 10 -253 -10 -54 -53 -87 -129 -100 -18 -3
-45 -8 -62 -11 -72 -12 -160 -101 -171 -173 -5 -29 16 -57 24 -33 2 7 10 12
18 12 8 0 14 4 14 8 0 11 79 56 112 63 28 6 38 -7 53 -71 8 -35 31 -63 44 -55
6 3 9 11 6 16 -4 5 -1 9 6 9 7 0 9 3 6 7 -4 3 4 21 18 39 14 18 25 38 25 44 0
6 4 9 9 5 5 -3 12 4 16 15 3 11 9 19 13 18 4 -1 15 2 24 6 37 16 47 1 42 -63
-3 -33 -1 -62 4 -65 4 -2 19 2 33 9 13 8 31 18 39 22 8 4 20 11 25 15 6 4 36
28 67 53 31 25 60 45 65 45 4 0 21 -14 38 -31 16 -18 45 -38 64 -46 42 -18
143 -21 149 -5 2 7 8 10 13 6 5 -3 9 -1 9 4 0 5 -12 15 -27 23 -32 16 -62 45
-80 76 -16 28 -27 93 -16 93 5 0 26 16 47 35 21 19 35 35 31 35 -4 0 -2 7 5
15 13 16 21 65 10 65 -3 0 -16 -10 -28 -22 -36 -39 -46 -44 -90 -42 -65 2 -86
28 -85 103 0 33 6 75 12 94 7 20 14 47 17 61 5 30 11 62 17 91 20 89 26 177
14 193 -6 8 -6 12 2 12 13 0 -16 66 -41 94 -10 11 -18 23 -18 28 0 4 -21 17
-47 30 -50 23 -197 36 -208 18z"/>
<path d="M1545 3005 c-22 -19 -46 -35 -52 -35 -7 0 -13 -3 -13 -7 0 -9 -68
-38 -126 -53 -41 -10 -154 -14 -184 -7 -56 14 -79 22 -112 39 -41 20 -45 15
-24 -35 8 -20 12 -61 11 -107 -4 -91 -8 -114 -28 -162 -9 -21 -12 -40 -7 -43
8 -5 49 -1 110 11 14 3 46 7 72 10 26 2 76 11 110 19 34 8 64 12 67 10 2 -3
10 0 17 6 21 17 45 -29 36 -71 -11 -55 -8 -72 31 -145 39 -75 58 -78 62 -10 5
61 94 165 191 221 10 6 20 18 22 27 3 16 -51 103 -73 119 -5 4 -7 8 -3 8 4 0
-4 25 -18 55 -14 30 -23 59 -20 64 4 5 2 12 -3 16 -5 3 -8 14 -6 25 2 11 0 20
-4 20 -4 0 -7 14 -6 30 1 17 -1 30 -4 30 -3 -1 -24 -16 -46 -35z"/>
<path d="M574 2929 c-7 -12 -7 -136 0 -148 3 -3 7 -25 11 -48 7 -47 42 -137
67 -173 14 -19 20 -22 30 -12 7 7 20 12 30 12 10 0 18 7 18 15 0 8 -4 15 -10
15 -16 0 -24 51 -10 60 11 7 10 14 -5 36 -12 19 -14 29 -6 32 6 2 9 8 5 13 -3
5 2 9 11 9 13 0 14 4 4 23 -7 12 -16 25 -21 28 -6 4 -5 14 3 27 10 16 9 26 -6
58 -11 22 -18 45 -17 52 4 16 -94 17 -104 1z"/>
<path d="M3714 2824 c-32 -7 -81 -22 -108 -33 -27 -12 -56 -23 -65 -25 -9 -2
-29 -9 -46 -16 -16 -7 -32 -14 -35 -14 -3 -1 -11 -5 -17 -9 -7 -5 -13 -5 -13
0 0 4 -4 3 -8 -2 -4 -6 -22 -17 -40 -25 l-33 -15 29 -30 c42 -43 102 -96 102
-90 0 3 8 -3 18 -12 30 -29 59 -47 159 -99 92 -47 106 -73 74 -132 -9 -18 -54
-38 -73 -34 -17 4 -148 -18 -174 -29 -16 -7 -32 -12 -36 -11 -5 1 -8 -2 -8 -7
0 -5 -8 -12 -18 -15 -32 -11 -84 -68 -72 -80 8 -8 13 -7 19 3 5 7 13 11 18 8
5 -3 25 -2 45 2 20 5 43 4 52 -1 15 -8 14 -12 -6 -41 -12 -18 -25 -34 -29 -37
-4 -3 -13 -18 -19 -34 -9 -23 -8 -27 4 -23 17 7 67 16 116 22 19 2 54 7 78 11
40 6 42 6 42 -19 0 -37 16 -42 53 -15 18 13 48 31 67 38 19 8 59 38 89 67 42
43 56 51 67 42 8 -6 14 -8 14 -3 0 4 5 3 12 -4 20 -20 48 -14 49 11 1 12 2 40
4 62 1 22 3 54 4 72 1 23 13 43 46 76 25 25 45 55 45 66 0 24 0 24 -37 10 -57
-21 -89 -20 -117 6 -14 13 -26 30 -27 37 0 7 -3 22 -5 33 -2 11 -6 56 -8 100
-3 44 -7 90 -10 103 -9 40 -45 80 -79 88 -50 11 -59 11 -123 -2z"/>
<path d="M788 1753 c-31 -7 -38 -54 -40 -273 -2 -224 2 -249 42 -270 19 -10
226 -15 265 -6 11 2 23 5 27 5 4 1 19 12 33 26 22 23 25 34 25 95 0 39 -3 71
-7 72 -48 9 -114 4 -112 -10 1 -4 1 -22 0 -40 -1 -45 -49 -75 -95 -60 -17 6
-36 15 -43 20 -14 11 -17 305 -3 328 5 8 29 15 57 16 56 3 82 -14 76 -50 -5
-27 17 -39 72 -41 47 -2 55 10 55 85 0 101 -6 105 -189 106 -80 0 -153 -1
-163 -3z"/>
<path d="M1260 1753 c-13 -3 -15 -40 -14 -261 0 -153 4 -264 10 -275 9 -16 26
-18 152 -18 78 0 146 2 151 5 13 9 19 76 7 85 -6 5 -45 8 -88 7 -60 -1 -78 2
-86 15 -13 21 -8 109 8 119 6 4 42 7 78 6 37 -1 72 2 77 7 12 12 7 89 -6 81
-5 -3 -9 -1 -9 5 0 6 -25 10 -57 9 -108 -2 -104 -5 -104 70 0 52 12 59 92 58
39 -1 73 2 76 7 12 20 13 66 1 74 -13 8 -258 13 -288 6z"/>
<path d="M1630 1739 c0 -10 5 -21 10 -24 6 -3 10 -15 10 -26 0 -10 4 -19 9
-19 5 0 12 -10 16 -22 10 -30 8 -26 36 -83 13 -27 29 -53 34 -57 6 -4 6 -8 1
-8 -4 0 -1 -12 9 -26 23 -36 27 -56 29 -166 0 -53 4 -99 8 -103 8 -9 105 -8
119 0 5 4 9 17 8 28 0 12 0 27 1 32 6 28 5 83 -2 103 -4 12 -4 22 1 22 4 0 7
10 6 23 -1 12 1 27 6 32 4 6 22 47 40 90 17 44 42 103 54 131 39 86 38 89 -26
92 -66 3 -67 3 -107 -98 -22 -56 -34 -75 -48 -75 -11 0 -19 5 -20 10 -1 11
-10 36 -30 82 -8 17 -14 36 -14 41 0 28 -33 43 -91 41 -49 -2 -59 -5 -59 -20z"/>
<path d="M2147 1743 c-11 -38 -2 -522 9 -533 14 -14 260 -18 273 -5 11 11 21
85 12 86 -3 1 -40 3 -81 5 -41 3 -78 8 -83 13 -5 5 -10 107 -11 227 l-1 218
-57 4 c-48 3 -57 1 -61 -15z"/>
<path d="M2518 1746 c-31 -23 -34 -54 -33 -274 1 -183 4 -225 16 -233 8 -5 10
-9 4 -9 -5 0 -1 -6 10 -14 24 -16 95 -28 95 -15 0 5 6 6 13 4 26 -9 67 -13 67
-7 0 4 30 6 67 4 55 -2 73 1 93 17 24 19 25 25 25 120 0 56 4 101 9 101 5 0 4
6 0 13 -11 15 -11 67 -1 85 5 6 5 12 0 12 -4 0 -8 36 -7 80 0 79 -15 128 -37
115 -5 -4 -9 -2 -9 3 0 13 -294 12 -312 -2z m228 -99 c5 -4 9 -77 9 -162 1
-169 -5 -190 -56 -199 -36 -6 -89 27 -90 56 -1 13 -2 82 -3 153 -1 157 2 164
80 161 29 0 56 -5 60 -9z"/>
<path d="M2989 1747 c-6 -46 -4 -506 1 -522 5 -13 20 -22 43 -26 53 -8 60 13
60 178 -1 76 1 142 4 146 6 9 59 -93 55 -105 -1 -5 3 -8 8 -8 6 0 10 -7 10
-15 0 -8 5 -15 12 -15 6 0 9 -3 5 -6 -11 -11 75 -163 97 -171 34 -11 46 -12
46 -2 0 4 6 6 14 3 8 -3 18 1 22 8 13 20 12 532 0 540 -14 10 -68 10 -83 0 -9
-6 -13 -35 -12 -89 0 -45 -2 -87 -6 -92 -3 -6 -1 -11 5 -11 8 0 8 -6 0 -20
-19 -35 -34 -22 -78 68 -75 154 -71 150 -141 151 -40 0 -61 -4 -62 -12z"/>
<path d="M3610 1736 c-6 -18 -4 -65 4 -73 1 -1 21 -4 44 -5 23 -2 43 -7 43
-13 1 -5 2 -105 3 -222 1 -116 4 -214 7 -218 6 -5 60 -9 105 -6 19 1 21 7 20
46 -1 25 2 45 7 45 4 0 5 5 1 12 -10 16 -11 108 -1 108 5 0 5 5 1 12 -11 17
-11 78 -1 78 4 0 5 6 1 12 -10 16 -12 98 -3 98 4 0 5 9 2 20 -3 11 -4 20 -2
20 34 4 85 13 88 16 3 2 5 20 6 40 2 23 -3 38 -14 44 -9 4 -81 8 -160 7 -135
0 -143 -2 -151 -21z"/>
<path d="M4029 1756 c-1 0 -3 -119 -4 -264 -1 -183 2 -267 10 -278 9 -13 36
-16 153 -16 88 0 148 4 156 11 9 7 11 23 7 48 l-6 38 -70 2 c-39 1 -77 2 -86
2 -26 2 -37 41 -25 91 l11 45 72 0 c40 1 76 4 80 9 12 12 12 75 0 83 -7 4 -37
8 -67 10 -30 1 -64 2 -76 2 -11 1 -21 7 -22 14 -1 6 -4 26 -6 42 -3 17 1 39 9
51 12 19 22 21 79 19 35 -1 70 1 76 5 15 9 21 67 7 78 -9 7 -291 15 -298 8z"/>
<path d="M4521 1732 c-11 -26 -18 -53 -26 -97 -2 -11 -9 -45 -15 -75 -7 -30
-13 -63 -13 -72 -1 -10 -4 -18 -7 -18 -3 0 -6 -8 -6 -17 -1 -10 -4 -31 -8 -48
-6 -32 -17 -84 -20 -100 -1 -5 -4 -14 -7 -20 -3 -5 -7 -28 -8 -51 l-2 -41 53
5 c29 2 57 7 62 12 4 5 9 27 10 49 1 22 5 44 10 48 4 4 34 8 66 9 65 2 67 0
76 -73 3 -21 6 -39 8 -40 9 -10 90 -7 103 2 14 10 14 19 -1 79 -10 37 -15 70
-12 74 3 3 2 10 -3 16 -8 10 -14 34 -26 101 -2 11 -4 20 -5 20 -1 0 -3 7 -5
15 -17 86 -37 182 -45 212 l-10 36 -79 0 c-76 0 -80 -1 -90 -26z m119 -234 c7
-24 14 -55 16 -69 3 -24 1 -25 -44 -25 -51 -1 -66 10 -51 37 5 10 9 27 9 38 0
11 7 26 15 34 8 8 11 17 8 21 -4 3 3 6 14 6 15 0 23 -11 33 -42z"/>
<path d="M793 1085 c-74 -31 -63 -114 17 -131 105 -24 115 -31 86 -60 -21 -20
-69 -17 -94 6 -39 36 -89 17 -53 -21 27 -28 54 -37 101 -35 61 4 72 7 97 35
36 40 8 94 -53 104 -71 13 -93 20 -98 32 -12 32 57 52 84 25 18 -18 33 -24 57
-21 18 2 11 43 -9 49 -10 2 -18 9 -18 15 0 6 -3 8 -6 4 -3 -3 -17 -2 -30 3
-16 7 -24 6 -24 -1 0 -8 -4 -8 -12 -1 -9 7 -23 6 -45 -3z"/>
<path d="M1974 1088 c-3 -5 -10 -6 -15 -3 -14 9 -66 -25 -80 -52 -21 -40 -15
-115 11 -146 13 -15 30 -27 37 -27 7 0 13 -3 13 -7 0 -15 75 -13 115 2 49 18
67 46 70 105 3 56 -16 95 -57 116 -35 18 -86 25 -94 12z m82 -64 c17 -15 24
-80 11 -93 -6 -6 -7 -11 -2 -11 5 0 -2 -8 -15 -17 -14 -10 -28 -17 -32 -15 -5
1 -8 -2 -8 -7 0 -13 -55 6 -69 23 -6 7 -12 22 -14 34 -2 12 -6 24 -9 28 -9 8
13 57 32 69 39 26 71 23 106 -11z"/>
<path d="M2646 1091 c-3 -5 -15 -7 -25 -4 -26 7 -79 -26 -94 -57 -14 -28 -15
-68 -3 -116 14 -59 126 -92 191 -57 21 12 69 63 59 63 -4 0 -1 6 5 13 6 8 8
17 5 20 -4 4 -8 17 -9 29 -1 13 -3 28 -4 35 -2 22 -47 62 -74 67 -15 2 -31 7
-36 10 -5 4 -12 2 -15 -3z m61 -68 c15 -14 25 -73 12 -73 -5 0 -8 -3 -7 -7 4
-15 -14 -53 -22 -48 -5 3 -11 1 -15 -5 -11 -18 -56 -10 -80 15 -16 15 -25 36
-25 55 0 33 26 93 38 87 4 -3 16 -1 27 3 20 7 46 -3 72 -27z"/>
<path d="M3270 1090 c-7 -4 -19 -6 -27 -3 -7 3 -13 0 -13 -6 0 -6 -6 -11 -14
-11 -43 0 -67 -117 -35 -170 29 -46 70 -62 145 -55 42 4 64 2 64 -5 0 -7 6 -7
20 0 19 10 19 12 5 27 -13 12 -13 18 -4 30 16 18 21 123 6 123 -6 0 -8 3 -4 6
9 9 -41 55 -66 60 -12 2 -31 6 -43 8 -11 2 -27 1 -34 -4z m76 -53 c11 -11 32
-76 26 -82 -4 -3 -7 -12 -7 -18 0 -7 -10 -11 -21 -9 -12 1 -27 -4 -34 -13 -10
-12 -10 -15 0 -15 8 0 10 -3 6 -7 -13 -13 -50 -9 -66 7 -20 19 -42 70 -31 70
5 0 7 8 5 18 -9 37 44 74 89 61 16 -5 31 -10 33 -12z"/>
<path d="M1003 1066 c7 -12 15 -23 18 -26 3 -3 8 -12 12 -20 11 -24 31 -54 41
-62 5 -3 10 -26 11 -51 3 -54 12 -72 29 -58 7 6 15 9 18 6 2 -3 5 16 5 40 1
25 6 51 12 59 6 7 8 16 4 19 -3 4 -1 7 5 7 11 0 44 52 42 66 -1 3 7 12 17 19
16 12 16 14 2 20 -9 3 -22 5 -30 3 -17 -4 -49 -42 -49 -58 0 -21 -26 -40 -39
-27 -6 6 -11 15 -11 19 0 5 -10 22 -21 38 -15 20 -30 28 -50 28 -25 -1 -26 -3
-16 -22z"/>
<path d="M1269 1056 c-2 -108 4 -202 13 -207 16 -10 40 2 34 17 -3 7 0 14 6
16 8 3 8 10 -1 25 -7 15 -8 24 -1 28 6 4 7 11 3 18 -9 16 -10 58 -1 63 4 3 9
-1 10 -8 2 -21 5 -32 11 -48 3 -8 7 -24 9 -35 5 -33 34 -80 49 -80 19 -1 39
20 39 40 0 9 4 14 9 11 5 -4 7 3 4 14 -3 11 -2 28 2 37 4 10 9 26 10 35 2 20
14 37 16 22 6 -50 4 -101 -4 -111 -6 -9 -6 -13 2 -13 7 0 10 -4 7 -9 -9 -14
18 -31 34 -21 12 7 15 34 15 119 0 66 -4 112 -10 114 -5 3 -23 4 -39 3 -25 -2
-31 -8 -42 -46 -7 -24 -11 -47 -8 -52 3 -4 0 -8 -5 -8 -6 0 -11 -9 -11 -20 0
-11 -5 -20 -11 -20 -8 0 -7 -5 1 -15 11 -13 10 -14 -4 -9 -14 5 -21 30 -17 57
0 4 -3 7 -9 7 -5 0 -10 13 -10 28 0 15 -5 40 -12 54 -10 21 -19 26 -50 25 -35
-1 -38 -3 -39 -31z"/>
<path d="M1603 1081 c-5 -3 -8 -55 -8 -115 0 -100 2 -109 20 -116 17 -5 130
-6 130 0 0 1 10 3 23 6 27 5 49 24 53 45 4 22 -12 69 -23 69 -7 0 -6 5 1 13 6
8 8 17 4 20 -3 4 -2 7 4 7 7 0 9 9 5 23 -11 43 -30 51 -118 52 -46 1 -87 -1
-91 -4z m157 -56 c0 -17 -14 -30 -34 -33 -32 -6 -84 8 -82 21 4 26 18 37 42
33 13 -3 24 -1 24 4 0 4 11 3 25 -3 14 -7 25 -16 25 -22z m-2 -93 c12 -19 11
-22 -15 -34 -45 -22 -86 -17 -93 12 -8 34 6 45 53 44 30 0 45 -7 55 -22z"/>
<path d="M2182 1077 c-1 -16 -1 -188 0 -209 2 -21 15 -24 108 -23 70 0 75 2
78 22 3 19 -1 21 -25 19 -15 -1 -38 1 -51 6 -15 5 -21 4 -17 -2 4 -6 -2 -7
-17 -1 -21 8 -23 14 -24 97 -1 49 -2 91 -3 94 -2 12 -48 9 -49 -3z"/>
<path d="M2829 1021 c0 -36 -1 -88 -2 -114 -2 -47 4 -59 30 -63 18 -3 28 15
29 51 2 55 3 58 24 52 11 -3 20 -1 20 4 0 5 10 5 23 1 25 -9 57 -5 57 8 0 19
-13 39 -22 34 -13 -8 -97 -10 -92 -2 2 3 0 8 -6 10 -5 1 -7 12 -4 24 5 18 12
20 69 19 48 -1 66 3 70 13 3 8 3 17 0 21 -3 3 -48 6 -100 6 l-95 1 -1 -65z"/>
<path d="M3474 990 c1 -89 3 -102 24 -122 31 -32 127 -33 169 -2 27 20 28 25
28 105 1 109 -2 119 -31 117 -26 -3 -27 -7 -25 -114 1 -66 -14 -91 -54 -91
-43 0 -55 24 -55 114 0 45 -3 83 -7 84 -5 0 -18 2 -29 4 -21 4 -21 1 -20 -95z"/>
<path d="M3775 995 c-22 -52 -42 -95 -45 -95 -3 0 -6 -12 -5 -27 0 -17 6 -27
18 -29 9 -1 17 2 17 7 0 6 4 8 9 5 4 -3 13 6 19 19 10 21 18 24 57 23 38 0 49
-5 65 -28 12 -17 27 -27 38 -25 9 2 21 4 26 4 5 1 3 7 -3 14 -6 8 -8 17 -4 20
3 4 1 7 -5 7 -7 0 -12 7 -12 15 0 8 -12 40 -27 72 -15 32 -28 64 -29 72 -4 21
-20 33 -51 37 -27 3 -30 -1 -68 -91z m85 15 c0 -5 0 -11 -1 -12 0 -2 4 -15 10
-30 11 -29 3 -34 -39 -28 -20 3 -20 1 -7 43 11 33 37 53 37 27z"/>
<path d="M4024 1082 c-10 -8 -12 -211 -2 -228 4 -6 41 -9 95 -7 117 4 113 3
101 23 -8 13 -25 16 -73 16 -35 -1 -61 2 -59 6 3 5 1 8 -4 8 -5 0 -9 37 -9 83
-1 45 -2 87 -2 92 -1 12 -33 17 -47 7z"/>
<path d="M4256 1083 c-10 -11 -7 -231 4 -238 6 -3 10 0 10 7 0 11 2 11 9 0 18
-29 28 16 27 122 -1 103 -2 109 -22 112 -12 2 -24 1 -28 -3z"/>
<path d="M4342 1065 c2 -19 7 -22 35 -19 18 1 36 -2 40 -9 4 -6 7 -50 7 -98 1
-48 3 -90 6 -93 3 -3 16 -3 28 1 19 4 21 12 21 53 -1 26 2 53 5 59 4 6 3 11
-2 11 -5 0 -6 17 -3 38 6 34 9 37 39 38 33 0 61 18 49 31 -4 3 -57 7 -117 9
-108 2 -110 1 -108 -21z"/>
<path d="M4585 1081 c-5 -4 44 -72 60 -83 5 -4 7 -8 2 -8 -4 0 -1 -10 8 -23 8
-13 16 -41 19 -64 5 -51 11 -62 34 -59 13 2 18 14 20 54 2 29 7 52 13 52 5 0
9 4 9 10 0 5 14 32 30 58 17 27 30 54 30 59 0 9 -23 10 -51 4 -3 0 -16 -22
-29 -47 l-24 -45 -18 23 c-10 13 -18 29 -18 36 0 6 -4 12 -10 12 -5 0 -10 6
-10 14 0 9 -11 13 -31 12 -17 0 -32 -3 -34 -5z"/>
</g>
</svg>
